<svg xmlns="http://www.w3.org/2000/svg" width="512" height="512"><text style="line-height:1.25" x="118.188" y="334.122" font-weight="400" font-size="40" font-family="sans-serif" letter-spacing="0" word-spacing="0" transform="translate(0 -161.533)"/><path d="M228.522 502.224c-64.598 2.283-145.606-38.881-148.378-134.07-2.161-74.168-36.368-104.412-36.368-104.412 52.964-6.169 50.91 29.839 65.113 29.656 0 0 12.631-62.623-12.312-92.051 48.557-5.626 55.057 51.505 61.927 39.142.57-15.165 10.447-82.405-22.787-124.608 0 0 27.734.413 72.248 45.006-5.187-26.809-9.46-80.15 38.521-154.887.89 25.63 6.973 80.29 26.73 115.702 24.026 43.065 4.673 93.942 24.13 96 15.577 1.65 28.138-79.774 30.977-102.932 17.768 1.792 7.68 134.577 24.573 142.341 13.966 6.42 29.787-46.772 38.494-68.903 4.376-11.12 19.03 89.84-4.104 127.614-16.244 26.525 36.836-22.237 80.938-19.672-21.7 13.065-41.123 53.726-50.029 117.971-4.26 30.735-59.706 90.765-132.073 88.787-35.32-.967-53.475.7-57.6-.674z" fill="red"/><path d="M274.484 504.03c12.146-1.011 78.95-35.763 73.552-86.37 0 0-16.532 12.82-35.764 8.097 10.122-16.87 51.96-81.652 31.716-103.58 0 0-40.488 54.657-46.561 45.548-6.074-9.11 11.809-83.335 1.686-96.833 0 0-21.593 53.308-28.679 48.923-11.809-7.085-22.605-74.9-26.316-83.674 0 0-2.024 85.697-11.472 76.254-9.447-9.448-29.353-44.874-32.39-56.684-19.232 11.472-8.834 103.796-.061 128.764-27.667-19.232-36.716-45.424-58.645-61.284 0 0-4.601 66.766 26.103 90.381 0 0-15.307 4.765-31.838-.971-1.35 18.22 47.235 90.086 92.448 92.448 45.212 2.362 46.896-.338 46.222-1.012z" fill="#ff0"/></svg>